<svg id="Layer_1" data-name="Layer 1" xmlns="http://www.w3.org/2000/svg" xmlns:xlink="http://www.w3.org/1999/xlink" viewBox="0 0 512 512"><defs><style>.cls-1{fill:url(#linear-gradient);}.cls-2{fill:url(#linear-gradient-2);}.cls-3{fill:url(#linear-gradient-3);}.cls-4{fill:url(#linear-gradient-4);}.cls-5{fill:url(#linear-gradient-5);}</style><linearGradient id="linear-gradient" x1="119.27" y1="269.06" x2="392.91" y2="269.06" gradientUnits="userSpaceOnUse"><stop offset="0" stop-color="#d6060a"/><stop offset="1" stop-color="#8a067d"/></linearGradient><linearGradient id="linear-gradient-2" x1="119.27" y1="237.46" x2="392.91" y2="237.46" xlink:href="#linear-gradient"/><linearGradient id="linear-gradient-3" x1="119.27" y1="330.29" x2="392.91" y2="330.29" xlink:href="#linear-gradient"/><linearGradient id="linear-gradient-4" x1="119.27" y1="256" x2="392.73" y2="256" xlink:href="#linear-gradient"/><linearGradient id="linear-gradient-5" x1="119.27" y1="341.68" x2="392.91" y2="341.68" xlink:href="#linear-gradient"/></defs><path d="M362.23,254.3A206.84,206.84,0,0,1,368,229.37c2.84-9.29,7.62-17.89,12.47-26.41a71.08,71.08,0,0,1-2.29-10.78c-1.68-11.88-3.05-23.82-3.61-35.82l-.06-1.21-.41.17c-10.57,4.14-21.63,7.26-32.55,10.34-8.81,2.48-17.82,4.16-26.82,5.75-23,4.07-45.42-2.25-64.75-14.42a89.5,89.5,0,0,1-14.35-12.43A309.1,309.1,0,0,1,193.34,151c-12.3,1-24.73,1.67-37.15,1.73q2.07,4.59,3.68,9.41c4.59,13.62,9.33,27.56,11.69,41.82a264.54,264.54,0,0,1,3.24,33.94l1.73,5.84.09,10.35-.09,26.38,10.17,54.95L189.11,357l8.44,47.84c1.2.83,2.4,1.66,3.63,2.44a182.89,182.89,0,0,0,21.41,7.28c31,5.81,63,7.78,94.54,7.68.93-.12,1.85-.25,2.77-.4,2.79-1.3,5.52-2.73,8.2-4.23,4.39-3,8.72-6.1,13-9.2-2.63-8.17-2.11-6.33-2.58-18.92-.2-5.28-.61-9.15-.33-13.88q2.47-11,4.94-22l.31-1.21c.31-.81.68-1.56,1-2.35,6.93-16,14.28-26.8,25.78-38.33-7.54-19.86-9.28-29.67-8.69-51.21A43.27,43.27,0,0,1,362.23,254.3Z"/><path class="cls-1" d="M198.2,295.87c5.32-6.2,11-12.25,9-21.56a24.47,24.47,0,0,1-.05-4.92h0a3.38,3.38,0,0,1,.09-.72,25.12,25.12,0,0,1-.07-2.75c0-.63.06-1.27.09-1.9q-1.23-9.52-2.47-19c-.42-3.19-2-5.6-5.39-4.12-7.1,3.14-14,6.75-20.87,10.34a4.09,4.09,0,0,0-1.91,2.91c-.13,8.21-.13,16.43,0,24.64a6.57,6.57,0,0,0,1.8,3.83c4.17,4.5,8.47,8.87,12.78,13.24C193.5,298.11,195.91,298.54,198.2,295.87Z"/><path class="cls-2" d="M182.55,242.1c3.16-1.48,9.78-.33,8.63-6.63-1.1-6-6.69-3.84-10.73-4.22-4.45-.42-6.51,1.43-6,5.6C174.45,244.11,175.78,245.27,182.55,242.1Z"/><path class="cls-3" d="M227.33,327.7a129.13,129.13,0,0,1,21.85,3.89c8.91,2.34,17.49,7.21,26.44,7.85,12.54.89,20.5,6.71,26.61,16.71a8.1,8.1,0,0,0,1.65,2.13c1.29,1.05,2.72,1.92,4.1,2.86.52-1.76,1.71-3.62,1.45-5.26-1.19-7.57-2.65-15.11-4.28-22.6-1.36-6.3-1.89-13-9.25-16.13-12.73-5.35-25.37-10.91-37.95-16.58a10.54,10.54,0,0,0-10.8.75c-8.05,4.94-16.37,9.44-24.41,14.39-4.67,2.87-8.84,3.25-12.69-1.07-2.15-2.4-3.75-2-5.78.28A102.36,102.36,0,0,1,194,325.43c-3.59,3-6.3,6.25-7.26,10,2.5,6.54,1.92,13.5,2,20.38.14.39.27.77.39,1.16,1.86-.89,4.07-1.4,5.51-2.73,8.1-7.55,15.86-15.47,24.1-22.86C221,329.37,224.54,327.46,227.33,327.7Z"/><path class="cls-4" d="M314.9,141.57c-4.1,5.12-8.8,9.74-13,14.78-2.62,3.15-6.44,3.92-8.38,1.35a2.6,2.6,0,0,1-.23-.4,4.32,4.32,0,0,1-.63-5.63,7.12,7.12,0,0,1,2.59-4.62,5.25,5.25,0,0,1,.94-.59,14.49,14.49,0,0,1,2.79-2.63c.59-.65,1.18-1.28,1.8-1.89,5.48-8.13,10.89-16.31,16.06-24.64a15.61,15.61,0,0,0,2.12-7.69c.09-7,.24-14-.73-20.85-1-7,.12-14.54-5.14-20.84C305,58.17,297.24,48,289.76,37.74a23.48,23.48,0,0,1-3.9-10.27c-.41-3-.73-6.1-1-9.17a79.09,79.09,0,0,1-2.61-15c-.07-.31-.13-.63-.18-1-.24.32-.51.61-.77.91-1,1.69-2.06,3.45-3,5.26-.74,2.42-1.88,4.77-2.47,7.21-1,4-.73,8.09-.89,12.2a66.1,66.1,0,0,0,.61,11.93c.59,4,1.26,8.08,2.2,12,.11.47.22.93.34,1.39.91,2.5,2,5,3.1,7.51,2,4.31,1.92,9.57,2,14.73a17.62,17.62,0,0,1,.39,4,3.05,3.05,0,0,1-.86,2.08,2.33,2.33,0,0,1-.78.54c-.28.27-.56.52-.8.76-2,2-4.47,3.59-6.12,5.81-6,8-11.76,16.22-17.44,24.47-2.44,3.55-5.94,5.27-9.25,3.08-3.58-2.36-.64-5.71,1.15-8,7.36-9.5,14.73-19,22.51-28.15,4-4.7,4.55-9.26,2-14.56a32.37,32.37,0,0,1-2.71-6c-1.2-4.82-4.4-5.65-8.72-5.31-7.28.57-14.64,1.63-21.87,1.13-9.82-.69-17.25,3.71-24.17,9.45C201.53,77.12,186.85,89.83,172,102.36c-5.61,4.74-6,8.09-1.39,13.91,4.41,5.54,9.14,10.86,13.18,16.66,1.08,1.55.15,4.5.14,6.8-1.86-.59-4.33-.62-5.47-1.87a270.91,270.91,0,0,1-17.57-20.75c-1.59-2.15-2-6.39-1-9,6.49-18.5,13.65-36.77,20.18-55.26A50,50,0,0,0,182.17,44c0-1.61.11-3.23.11-4.85,0-.69,0-1.38-.07-2.07s-.36-1.47-.57-2.22c-.27-.95-.59-1.89-.91-2.82a3.31,3.31,0,0,0-.33-.15,6.75,6.75,0,0,1-.14,1.26.43.43,0,0,0,0,.11,1.33,1.33,0,0,0-.05.19,1.21,1.21,0,0,1-.05.18h0a11.56,11.56,0,0,1-1.21,2.79c-.24.49-.5,1-.76,1.42-4,9.32-13.18,15.46-21,21.38C150.91,64,144.51,69.8,137.46,74l-6.82,5.89c-1.84,1.6-4,3.65-4.51,5.84-2.5,11-4.63,22.11-6.57,33.24-.44,2.55-.52,5.89.75,7.91C127.56,138.36,134.65,150,143,160.7c8.49,10.86,13.65,23.18,16.63,36.1a119.69,119.69,0,0,0,8.2,22.83c1.48,3.29,3.8,5,7.72,4.81a107.67,107.67,0,0,1,15.86.5c4.17.46,6.52-.82,6.56-5,0-4,2.22-4.83,5.63-4.73,5.48.16,7,1.61,7.46,8.44,1.66,25.94,3.19,51.88,4.84,77.82a69,69,0,0,0,1.33,7.33c11.61-6.41,22.25-12,32.5-18.14,3.66-2.2,6.26-1.47,9.54.13,12.25,6,24.57,11.83,36.9,17.65,2.73,1.28,5.61,2.24,8.51,3.39,5.59-8.59,11.15-16.49,16-24.8,4.08-7,8.17-14.23,10.73-21.86,2.25-6.76,2.23-14.26,3.59-21.36a1.63,1.63,0,0,1,.13-.37,2.36,2.36,0,0,1,.16-.47,2.08,2.08,0,0,1,.57-1.2l.09-.16,0-.05.34-.44.06-.07a2.73,2.73,0,0,1,1.12-.67l.07,0h0l.54-.07h0a.83.83,0,0,1,.22,0s0,0,.05-.05l.07.06.3.06a2.43,2.43,0,0,1,.6.24l.05,0,0,0c.14.1.3.22.43.33a.94.94,0,0,1,.1.1,3.42,3.42,0,0,1,.4.52.25.25,0,0,0,0,.07c.08.18.15.37.23.55a.84.84,0,0,1,.05.17s0,.06,0,.09v.05a1,1,0,0,1,.17.52c.65,13.46-.11,26.88-6.82,38.87-6,10.79-13.47,20.81-19.65,31.53a20.14,20.14,0,0,0-2.36,11.81c1.9,14.67,4.7,29.22,6.84,43.87,1,6.76-2,9.12-8.46,7.11a11,11,0,0,1-3.95-2.78c-7.82-7.59-14.89-16.21-23.62-22.55-5.62-4.09-13.59-5.08-20.64-6.92-1.27-.33-3.15,2-4.85,3-2.81,1.55-5.61,4-8.57,4.24-11,.93-21.78,4-33.06,1.13-8.3-2.09-19.22,7.52-19.51,16.34a223.6,223.6,0,0,0,.06,24.15c.88,11.64,3.06,23.2,3.64,34.85.3,6.14,2.15,10.51,7.2,13.55,11.05,6.65,17,16.64,20.41,28.89,3.81,13.82,15.25,21.92,24.49,31.76,1.06-.92,1.67-1.34,2.16-1.87,9.74-10.53,9.74-10.53,18.24.95a5.46,5.46,0,0,1,.27.48c2.35,3.56,4.1,9.91,7.19,7.83,1.49-1,4-9,5.2-10.36,29.46-35.31,56.58-72.39,83-110,2.28-3.24,4.64-6.78,5.58-10.52,3.37-13.46,3.75-23,3.24-37.11-.09-2.61,4.82-10.22,6.89-11.72,10.43-7.6,10.11-7.28,7.07-28.28-2.06-14.26-8.45-27.55-12.94-41.24-3-9.08-.15-17,3.31-25.25,3.73-8.86,9.05-18,9.31-27.16.59-21.51-1.23-43.11-2.57-64.63-.23-3.69-2.4-7.56-4.55-10.76-7-10.42-15.71-19.9-21.31-31-6.85-13.54-17.75-21.71-30-29.06-4.73-2.84-6.58-1.75-6.41,3.92.43,14.45,2.49,26.72,3.16,41.17.17,3.43-2,8-2.73,10.53-.53,1-10.55,12.58-11.27,13.47m-22.6,79.79a18.91,18.91,0,0,1-2.76,6.67,10.47,10.47,0,0,1-1.71,1.8c-.32.35-.65.7-1,1.05-5.78,5.35-12,8.65-19.27,7.83l-.6,0c-2.64,0-5.27-.24-7.9-.33-13.91.54-25.46-5.56-36.15-14a1.53,1.53,0,0,1-.18-.18,2.07,2.07,0,0,1-.4-.38,1.35,1.35,0,0,1-.36-.28,13.28,13.28,0,0,0-1.1-1l0,0a1.87,1.87,0,0,1-.59-.83,2.21,2.21,0,0,1-.3-1.59s0-.06,0-.1a1.48,1.48,0,0,1,.18-.77,1.5,1.5,0,0,1,.41-.64,2,2,0,0,1,.88-.52,9.12,9.12,0,0,1,1.15-.17,4.36,4.36,0,0,1,.51,0,2,2,0,0,1,.71-.13h.05a2.08,2.08,0,0,1,.63-.1,1.9,1.9,0,0,1,1.2.39c10.39,4.94,20.1,0,29.92-2.06,10.48-2.22,20.81-5.12,31.23-7.66,1.57-.39,3.78-1.14,4.7-.43a3.79,3.79,0,0,1,1.11,1.8,8.35,8.35,0,0,1,.86,2.84l.06.18h0C293.78,215.3,293,218.43,292.32,221.06Z"/><path class="cls-5" d="M224,338.85c-1.49.72-2.16,3.14-3.21,4.77,1.94,1.17,3.88,3.29,5.83,3.31a65.09,65.09,0,0,0,14-1.57c3.43-.73,6.67-2.34,10-3.61a1.65,1.65,0,0,1,.28-.5l-.36-2C241.78,336.84,232.94,334.54,224,338.85Z"/></svg>