<?xml version="1.0" standalone="no"?>
<!DOCTYPE svg PUBLIC "-//W3C//DTD SVG 20010904//EN"
 "http://www.w3.org/TR/2001/REC-SVG-20010904/DTD/svg10.dtd">
<svg version="1.0" xmlns="http://www.w3.org/2000/svg"
 width="1024.000000pt" height="1024.000000pt" viewBox="0 0 1024.000000 1024.000000"
 preserveAspectRatio="xMidYMid meet">

<g transform="translate(0.000000,1024.000000) scale(0.100000,-0.100000)"
fill="#000000" stroke="none">
<path d="M4760 10139 c-1105 -90 -2109 -506 -2935 -1218 -129 -110 -396 -377
-506 -506 -1017 -1181 -1434 -2751 -1133 -4265 172 -869 555 -1654 1133 -2325
110 -129 377 -396 506 -506 1181 -1017 2751 -1434 4265 -1133 869 172 1654
555 2325 1133 129 110 396 377 506 506 1017 1181 1434 2751 1133 4265 -172
869 -555 1654 -1133 2325 -110 129 -377 396 -506 506 -929 801 -2104 1235
-3319 1228 -127 -1 -278 -6 -336 -10z m850 -553 c913 -115 1682 -446 2380
-1024 135 -112 425 -399 531 -527 486 -582 803 -1223 963 -1945 37 -170 63
-340 87 -570 55 -547 -17 -1193 -197 -1751 -448 -1389 -1514 -2455 -2903
-2903 -558 -180 -1204 -252 -1751 -197 -617 63 -1100 200 -1620 461 -1276 638
-2166 1840 -2409 3250 -47 276 -56 389 -56 755 0 374 9 480 61 780 284 1619
1452 2964 3017 3474 350 115 633 171 1082 215 102 10 696 -3 815 -18z"/>
<path d="M3338 7934 c-77 -68 -1625 -1611 -1654 -1649 -19 -26 -24 -44 -25
-96 -1 -88 -9 -110 -48 -136 -26 -18 -48 -23 -97 -23 -34 0 -74 -4 -89 -10
-33 -12 -312 -285 -332 -324 -15 -28 -14 -31 7 -48 20 -16 45 -18 256 -18 254
0 276 -4 294 -53 7 -20 10 -309 10 -869 0 -703 2 -843 14 -866 20 -38 336
-348 364 -357 16 -5 29 -1 43 11 19 17 19 46 19 1341 0 1103 2 1329 14 1357
16 39 129 163 157 171 13 4 28 0 40 -11 19 -17 19 -49 19 -1581 0 -1302 2
-1569 14 -1596 7 -18 90 -107 184 -199 177 -175 207 -194 232 -149 7 13 10
657 10 2011 0 1966 0 1991 20 2030 11 21 48 68 83 104 66 69 98 82 117 47 7
-14 10 -731 10 -2249 0 -1904 2 -2235 14 -2264 19 -44 336 -355 371 -364 19
-5 32 -1 43 10 16 15 17 88 20 846 l3 829 26 21 c25 19 38 20 415 20 313 0
395 -3 421 -14 18 -8 115 -93 217 -190 102 -97 196 -179 209 -183 53 -14 51
-74 51 1354 l0 1324 24 47 c31 60 137 165 162 160 45 -8 44 31 44 -1611 0
-1320 2 -1562 14 -1585 13 -25 121 -134 291 -295 70 -66 102 -80 124 -54 8 10
11 568 13 2023 l3 2009 22 36 c32 51 138 149 161 149 49 0 47 123 52 -2287 l5
-2255 45 -51 c68 -79 298 -291 327 -302 21 -8 28 -6 44 14 18 22 19 53 19 843
l0 819 25 25 25 25 405 -3 c364 -3 406 -5 421 -20 13 -12 19 -42 23 -115 5
-74 11 -106 26 -129 11 -17 93 -101 182 -188 168 -162 199 -181 223 -137 7 13
10 388 10 1144 0 759 3 1134 10 1154 16 46 45 53 204 53 155 0 203 -10 211
-43 3 -12 6 -652 8 -1422 2 -1258 4 -1404 18 -1435 16 -35 329 -343 372 -367
18 -9 25 -8 40 4 16 15 17 115 17 1820 0 1790 0 1803 -20 1823 -18 18 -33 20
-180 20 -167 0 -210 9 -224 45 -10 28 15 58 199 236 99 96 190 187 202 203
l23 30 0 706 c0 536 -3 709 -12 718 -7 7 -21 12 -32 12 -23 0 -1212 -1180
-1252 -1242 -24 -37 -24 -39 -24 -311 0 -166 -4 -286 -10 -304 -6 -17 -22 -35
-36 -42 -17 -8 -145 -11 -415 -11 l-390 0 -24 25 -25 24 0 900 c0 650 -3 907
-11 925 -15 31 -34 39 -62 25 -12 -7 -292 -280 -622 -608 -330 -328 -705 -699
-832 -826 -128 -126 -239 -243 -248 -261 -8 -18 -15 -53 -15 -79 0 -52 -20
-99 -49 -115 -13 -6 -161 -10 -409 -10 -377 0 -390 1 -415 21 l-26 20 -3 920
c-3 898 -3 921 -22 935 -28 20 -29 19 -88 -32z m4560 -906 c19 -19 17 -400 -2
-436 -16 -30 -321 -359 -349 -376 -24 -15 -49 3 -60 45 -13 50 -4 359 11 386
34 61 347 393 371 393 9 0 22 -5 29 -12z m-4248 -1423 c20 -18 20 -27 20 -646
l0 -628 -24 -28 c-21 -25 -31 -28 -86 -28 -55 0 -65 3 -86 28 l-24 28 0 628
c0 586 1 629 18 643 27 24 43 28 104 25 38 -2 64 -9 78 -22z m671 -4 l29 -29
0 -610 0 -609 -23 -34 c-30 -45 -81 -59 -140 -38 -34 11 -44 21 -54 49 -13 38
-19 1178 -7 1239 9 41 44 60 112 61 46 0 58 -4 83 -29z m2020 0 l29 -29 0
-609 c0 -590 -1 -609 -20 -641 -11 -18 -32 -37 -48 -43 -37 -15 -112 -3 -137
21 -20 20 -20 34 -23 646 -2 435 1 631 8 645 15 27 44 38 108 38 46 1 58 -3
83 -28z m659 14 c23 -12 30 -24 35 -57 3 -24 5 -310 3 -635 l-3 -593 -28 -27
c-23 -24 -36 -28 -83 -28 -50 0 -58 3 -85 33 l-29 32 0 618 c1 648 0 634 45
660 29 16 111 15 145 -3z"/>
</g>
</svg>
